<svg xmlns="http://www.w3.org/2000/svg" viewBox="0 0 120 120" width="120" height="120">
  
  <g>
    
    <path d="M55 22 Q40 4 28 14 Q34 28 52 30 Z" fill="#6E8C4A"></path>
    <path d="M65 22 Q80 4 92 14 Q86 28 68 30 Z" fill="#8FAA5C"></path>
    
    <path d="M58 28 Q60 22 62 28 L62 38 L58 38 Z" fill="#6E8C4A"></path>
    
    <path d="M60 38&#xA;             C 60 30, 48 28, 40 34&#xA;             C 28 42, 28 56, 40 66&#xA;             C 48 73, 56 80, 60 100&#xA;             C 64 80, 72 73, 80 66&#xA;             C 92 56, 92 42, 80 34&#xA;             C 72 28, 60 30, 60 38 Z" fill="#A82158"></path>
    
    <ellipse cx="48" cy="48" rx="6" ry="9" fill="#E2477F" opacity="0.55" transform="rotate(-20 48 48)"></ellipse>
  </g>
</svg>